<svg width="450" height="157" viewBox="0 0 450 157" fill="none" xmlns="http://www.w3.org/2000/svg">
<g clip-path="url(#clip0_0_1)">
<path d="M2.9585 153.12V150.24L10.7025 148.32V67.168L2.7025 64.736V62.176L18.6385 57.952H21.1345L23.0545 59.424L22.9905 67.296C23.7158 66.0587 24.9745 64.6293 26.7665 63.008C28.5585 61.344 30.8198 59.8933 33.5505 58.656C36.2812 57.376 39.3745 56.736 42.8305 56.736C48.1212 56.736 52.6225 57.9733 56.3345 60.448C60.0892 62.9227 62.9692 66.5493 64.9745 71.328C66.9798 76.064 67.9825 81.888 67.9825 88.8C67.9825 94.176 67.1718 99.104 65.5505 103.584C63.9292 108.064 61.6465 111.947 58.7025 115.232C55.8012 118.475 52.4305 120.992 48.5905 122.784C44.7505 124.533 40.6332 125.408 36.2385 125.408C33.3798 125.408 30.7345 125.173 28.3025 124.704C25.8705 124.235 24.1212 123.744 23.0545 123.232L23.2465 133.728V148.32L33.2305 150.24V153.12H2.9585ZM35.2785 121.632C39.2892 121.632 42.6598 120.459 45.3905 118.112C48.1212 115.723 50.1905 112.181 51.5985 107.488C53.0065 102.795 53.7105 96.9707 53.7105 90.016C53.7105 85.1947 53.3052 81.056 52.4945 77.6C51.7265 74.144 50.6385 71.328 49.2305 69.152C47.8652 66.976 46.2438 65.376 44.3665 64.352C42.4892 63.2853 40.4625 62.752 38.2865 62.752C35.8118 62.752 33.5718 63.2 31.5665 64.096C29.6038 64.992 27.9185 66.016 26.5105 67.168C25.1025 68.32 24.0145 69.344 23.2465 70.24V116.384C24.0572 117.579 25.5078 118.752 27.5985 119.904C29.6892 121.056 32.2492 121.632 35.2785 121.632ZM91.8535 125.088C88.7388 125.088 85.7948 124.448 83.0215 123.168C80.2908 121.888 78.0508 119.968 76.3015 117.408C74.5948 114.805 73.7415 111.563 73.7415 107.68C73.7415 103.669 74.9148 100.277 77.2615 97.504C79.6082 94.688 82.6588 92.4267 86.4135 90.72C90.1682 88.9707 94.2215 87.6907 98.5735 86.88C102.926 86.0693 107.128 85.664 111.182 85.664V79.008C111.182 75.9787 110.84 73.3547 110.158 71.136C109.518 68.8747 108.344 67.1253 106.638 65.888C104.974 64.6507 102.584 64.032 99.4695 64.032C95.2455 64.032 91.4268 64.5867 88.0135 65.696C84.6002 66.7627 81.6775 67.9573 79.2455 69.28L77.3895 66.08C78.8402 64.8427 80.8242 63.52 83.3415 62.112C85.9015 60.704 88.8668 59.5093 92.2375 58.528C95.6082 57.504 99.3202 56.992 103.374 56.992C108.195 56.992 112.099 57.8453 115.086 59.552C118.115 61.216 120.334 63.7333 121.742 67.104C123.15 70.432 123.854 74.6347 123.854 79.712V120.096L130.254 120.416V123.04C129.315 123.296 128.227 123.573 126.99 123.872C125.752 124.171 124.408 124.427 122.958 124.64C121.507 124.853 120.014 124.96 118.478 124.96C116.216 124.96 114.488 124.597 113.294 123.872C112.099 123.104 111.502 121.653 111.502 119.52V113.632C110.734 115.083 109.454 116.704 107.662 118.496C105.87 120.288 103.651 121.845 101.006 123.168C98.3602 124.448 95.3095 125.088 91.8535 125.088ZM96.9735 118.112C99.8322 118.112 102.435 117.493 104.782 116.256C107.128 115.019 109.262 113.312 111.182 111.136V89.44C106.531 89.44 102.371 90.1013 98.7015 91.424C95.0748 92.704 92.2162 94.5813 90.1255 97.056C88.0348 99.5307 86.9895 102.496 86.9895 105.952C86.9895 108.427 87.4375 110.581 88.3335 112.416C89.2295 114.208 90.4455 115.616 91.9815 116.64C93.5175 117.621 95.1815 118.112 96.9735 118.112ZM185.661 125.088C183.485 125.088 181.757 124.704 180.477 123.936C179.239 123.125 178.621 121.675 178.621 119.584V113.696C177.298 115.488 175.634 117.28 173.629 119.072C171.623 120.864 169.319 122.357 166.717 123.552C164.157 124.704 161.319 125.28 158.205 125.28C151.421 125.28 146.557 123.488 143.613 119.904C140.711 116.32 139.26 110.539 139.26 102.56L139.197 66.912L131.837 64.544V62.048L147.901 57.952H149.949L151.741 59.296V102.112C151.741 105.483 151.997 108.341 152.509 110.688C153.063 113.035 154.066 114.827 155.517 116.064C156.967 117.301 159.015 117.92 161.661 117.92C164.135 117.92 166.397 117.6 168.444 116.96C170.493 116.277 172.327 115.424 173.949 114.4C175.57 113.376 176.999 112.267 178.237 111.072V66.912L169.917 64.544V62.048L186.685 57.952H188.733L190.717 59.296V120.224L197.181 120.48V123.168C195.773 123.552 194.109 123.957 192.189 124.384C190.311 124.853 188.135 125.088 185.661 125.088ZM209.806 119.2V26.784L201.294 25.056V22.688L218.253 19.232H220.558L222.35 20.704V119.264L230.286 121.184V124H201.806V121.184L209.806 119.2ZM258.105 125.408C254.905 125.408 251.875 125.024 249.017 124.256C246.158 123.531 243.619 122.784 241.401 122.016C239.182 121.248 237.39 120.8 236.025 120.672L236.153 104.992H242.233L245.113 114.336C245.497 115.445 246.414 116.576 247.865 117.728C249.358 118.88 251.086 119.861 253.049 120.672C255.011 121.44 256.953 121.824 258.873 121.824C261.646 121.824 264.035 121.419 266.041 120.608C268.089 119.797 269.667 118.603 270.777 117.024C271.929 115.445 272.505 113.525 272.505 111.264C272.505 109.216 271.843 107.403 270.521 105.824C269.241 104.203 267.299 102.645 264.697 101.152C262.137 99.6587 258.915 98.08 255.033 96.416C251.278 94.7947 248.057 92.9813 245.369 90.976C242.681 88.9707 240.611 86.688 239.161 84.128C237.71 81.5253 236.985 78.56 236.985 75.232C236.985 71.3493 237.966 68.0427 239.929 65.312C241.934 62.5387 244.665 60.4267 248.121 58.976C251.619 57.4827 255.545 56.736 259.897 56.736C263.395 56.736 266.318 57.0133 268.665 57.568C271.011 58.1227 272.953 58.6987 274.489 59.296C276.067 59.8933 277.411 60.2987 278.521 60.512L278.329 75.552H272.697L269.817 66.592C269.39 65.4827 268.75 64.4373 267.897 63.456C267.043 62.4747 265.913 61.6853 264.505 61.088C263.139 60.4907 261.39 60.192 259.257 60.192C257.337 60.192 255.395 60.5547 253.433 61.28C251.513 61.9627 249.891 63.072 248.569 64.608C247.289 66.1013 246.649 68.064 246.649 70.496C246.649 72.8 247.31 74.784 248.633 76.448C249.998 78.112 251.79 79.584 254.009 80.864C256.227 82.1013 258.659 83.3387 261.305 84.576C263.95 85.8133 266.51 87.072 268.985 88.352C271.459 89.5893 273.678 90.9973 275.641 92.576C277.603 94.112 279.161 95.9253 280.313 98.016C281.465 100.064 282.041 102.475 282.041 105.248C282.041 109.173 281.102 112.651 279.225 115.68C277.39 118.709 274.702 121.099 271.161 122.848C267.619 124.555 263.267 125.408 258.105 125.408ZM306.622 125.152C302.952 125.152 300.072 124.256 297.982 122.464C295.934 120.672 294.91 117.387 294.91 112.608V63.776H286.334V60.96C286.931 60.7467 287.678 60.5333 288.574 60.32C289.47 60.064 290.366 59.808 291.262 59.552C292.158 59.296 292.84 59.04 293.31 58.784C293.95 58.4427 294.504 58.016 294.974 57.504C295.443 56.9493 295.87 56.3307 296.254 55.648C296.638 54.9653 297 54.24 297.342 53.472C297.726 52.5333 298.195 51.2533 298.75 49.632C299.304 48.0107 299.859 46.2613 300.414 44.384C300.968 42.464 301.459 40.6933 301.885 39.072H307.774V58.848H322.174V63.776H307.774V109.984C307.774 112.416 307.944 114.251 308.286 115.488C308.67 116.725 309.224 117.557 309.95 117.984C310.675 118.411 311.592 118.624 312.702 118.624C314.067 118.624 315.752 118.347 317.757 117.792C319.763 117.237 321.32 116.619 322.43 115.936L323.838 119.2C322.771 120.181 321.342 121.141 319.55 122.08C317.8 122.976 315.816 123.701 313.598 124.256C311.379 124.853 309.054 125.152 306.622 125.152ZM355.011 125.472C348.568 125.472 343.128 124.128 338.691 121.44C334.253 118.709 330.883 114.869 328.579 109.92C326.275 104.971 325.123 99.1253 325.123 92.384C325.123 86.7093 325.955 81.696 327.619 77.344C329.283 72.9493 331.523 69.216 334.339 66.144C337.197 63.072 340.419 60.768 344.003 59.232C347.629 57.6533 351.384 56.864 355.267 56.864C362.819 56.864 368.771 58.8907 373.123 62.944C377.517 66.9547 379.779 72.8213 379.907 80.544C379.907 83.1893 379.843 85.3227 379.715 86.944C379.587 88.5227 379.395 89.8667 379.139 90.976H339.267C339.309 94.9013 339.693 98.592 340.419 102.048C341.144 105.461 342.275 108.469 343.811 111.072C345.347 113.675 347.309 115.723 349.699 117.216C352.131 118.667 355.032 119.392 358.403 119.392C361.731 119.392 365.016 118.816 368.259 117.664C371.501 116.469 374.061 115.125 375.939 113.632L377.539 116.832C376.088 118.283 374.168 119.669 371.779 120.992C369.432 122.272 366.808 123.339 363.907 124.192C361.048 125.045 358.083 125.472 355.011 125.472ZM339.267 87.584L366.403 86.56C366.531 85.4507 366.595 84.4053 366.595 83.424C366.637 82.4 366.659 81.376 366.659 80.352C366.659 74.08 365.741 69.2373 363.907 65.824C362.115 62.368 359.107 60.64 354.882 60.64C352.28 60.64 349.997 61.3227 348.035 62.688C346.115 64.0107 344.493 65.888 343.171 68.32C341.848 70.7093 340.867 73.5467 340.227 76.832C339.587 80.1173 339.267 83.7013 339.267 87.584ZM384.599 124V121.184L392.279 119.264V67.168L384.343 64.736V62.176L399.895 57.952H402.903L404.759 59.36V63.712L404.439 74.592L404.695 73.824C404.951 72.3733 405.569 70.7307 406.551 68.896C407.532 67.0613 408.791 65.2693 410.327 63.52C411.905 61.7707 413.719 60.32 415.767 59.168C417.815 58.016 420.012 57.44 422.359 57.44C423.212 57.44 423.916 57.504 424.471 57.632C425.025 57.7173 425.495 57.8453 425.879 58.016V70.368C425.452 70.0693 424.855 69.792 424.087 69.536C423.319 69.2373 422.38 69.088 421.271 69.088C419.009 69.088 416.876 69.344 414.871 69.856C412.865 70.368 411.031 71.2213 409.367 72.416C407.703 73.6107 406.273 75.2107 405.079 77.216V119.264L414.999 121.184V124H384.599ZM434.293 125.28C432.501 125.28 430.922 124.64 429.557 123.36C428.191 122.037 427.509 120.309 427.509 118.176C427.509 115.829 428.319 113.909 429.941 112.416C431.562 110.88 433.418 110.112 435.509 110.112C437.813 110.112 439.519 110.837 440.628 112.288C441.781 113.739 442.357 115.381 442.357 117.216C442.357 119.648 441.546 121.611 439.925 123.104C438.346 124.555 436.469 125.28 434.293 125.28Z" fill="#00AD9C"/>
</g>
<defs>
<clipPath id="clip0_0_1">
<rect width="450" height="157" fill="white"/>
</clipPath>
</defs>
</svg>
